<?xml version="1.0" standalone="no"?>
<!DOCTYPE svg PUBLIC "-//W3C//DTD SVG 20010904//EN"
 "http://www.w3.org/TR/2001/REC-SVG-20010904/DTD/svg10.dtd">
<svg version="1.0" xmlns="http://www.w3.org/2000/svg"
 width="1024.000000pt" height="1024.000000pt" viewBox="0 0 1024.000000 1024.000000"
 preserveAspectRatio="xMidYMid meet">

<g transform="translate(0.000000,1024.000000) scale(0.100000,-0.100000)"
fill="#000000" stroke="none">
<path d="M0 5120 l0 -5120 5120 0 5120 0 0 5120 0 5120 -5120 0 -5120 0 0
-5120z m5610 3819 c164 -21 378 -65 520 -106 198 -57 539 -203 725 -310 120
-69 304 -193 322 -217 9 -13 17 -17 20 -9 7 19 114 177 137 201 33 38 95 64
160 69 34 3 92 16 129 29 44 16 90 24 131 24 71 0 79 -4 271 -147 124 -92 300
-205 381 -244 34 -16 76 -45 94 -65 30 -35 31 -39 25 -98 -7 -60 -5 -66 37
-145 40 -77 43 -89 43 -160 0 -54 -6 -86 -19 -111 -28 -53 -156 -258 -252
-405 -47 -71 -101 -158 -121 -193 l-35 -63 52 -107 c142 -290 230 -585 282
-947 19 -135 16 -598 -5 -748 -45 -314 -174 -729 -309 -992 -107 -207 -265
-462 -339 -545 -17 -19 -52 -61 -77 -92 -47 -60 -54 -67 -49 -46 1 7 -8 14
-20 16 -13 2 -23 -2 -23 -8 0 -7 -8 -10 -20 -7 -11 3 -20 0 -21 -6 -1 -7 -4
-2 -7 11 l-7 23 -23 -21 c-12 -12 -20 -25 -17 -31 4 -5 -1 -9 -9 -9 -9 0 -16
5 -16 10 0 6 5 10 10 10 6 0 10 7 10 15 0 8 -1 15 -3 15 -2 0 -62 -58 -133
-128 -259 -257 -517 -438 -859 -603 -308 -148 -614 -236 -1015 -291 -141 -19
-550 -16 -735 6 -570 67 -1166 319 -1615 685 -126 102 -322 296 -408 404 -59
74 -84 97 -43 39 28 -39 31 -66 6 -68 -11 -1 -24 -3 -30 -5 -14 -4 -85 23 -80
31 3 4 -4 15 -15 25 -19 17 -20 17 -20 0 0 -17 -3 -16 -22 5 -13 13 -22 37
-23 54 0 24 -5 32 -21 34 -33 5 -85 67 -182 218 -171 266 -308 582 -402 927
-131 484 -131 984 0 1517 121 490 309 880 628 1305 174 231 361 424 567 586
366 288 767 480 1250 599 187 46 299 65 450 80 61 5 128 12 150 14 88 9 429
-6 575 -25z m-3020 -5239 c0 -5 -4 -10 -10 -10 -5 0 -10 5 -10 10 0 6 5 10 10
10 6 0 10 -4 10 -10z m210 -162 c0 -19 -2 -20 -10 -8 -13 19 -13 30 0 30 6 0
10 -10 10 -22z m-82 -33 c-3 -3 -9 2 -12 12 -6 14 -5 15 5 6 7 -7 10 -15 7
-18z m-791 -1732 c141 -289 213 -445 213 -465 0 -5 -33 -8 -73 -8 l-73 0 -34
70 -34 70 -157 0 -156 0 -34 -70 -34 -70 -72 0 c-40 0 -73 2 -73 4 0 17 199
446 288 622 40 77 72 146 72 152 0 7 3 12 6 12 3 0 75 -143 161 -317z m4417
227 c86 -158 153 -294 236 -475 45 -99 86 -184 91 -189 5 -6 9 -16 9 -23 0 -9
-19 -11 -77 -8 -42 2 -79 8 -83 12 -4 4 -17 33 -29 65 -13 32 -30 58 -39 60
-9 1 -83 2 -165 0 l-147 -3 -35 -70 -35 -69 -75 0 c-73 0 -74 0 -66 23 23 58
124 283 168 372 27 55 80 166 119 247 38 82 72 147 76 145 3 -1 27 -40 52 -87z
m-3767 26 c89 -41 92 -46 49 -102 -20 -26 -36 -50 -36 -54 0 -4 -21 3 -47 16
-63 32 -173 34 -203 4 -20 -20 -25 -45 -14 -75 8 -21 63 -48 151 -74 95 -28
162 -74 191 -131 53 -105 9 -220 -109 -285 -46 -25 -64 -29 -130 -29 -67 0
-86 5 -143 33 -36 18 -80 44 -96 58 l-31 25 41 44 c22 24 40 50 40 59 0 21 13
19 28 -5 26 -43 146 -81 206 -66 60 15 88 90 44 120 -12 9 -70 32 -128 51
-124 41 -180 79 -209 138 -52 108 -2 223 124 284 71 34 184 29 272 -11z m718
-46 l0 -75 -107 -3 -108 -3 0 -223 c0 -123 -3 -257 -6 -299 l-7 -77 -63 0 -64
0 0 103 c0 57 -3 192 -7 300 l-6 197 -37 0 c-20 0 -65 3 -99 6 l-61 7 0 68 c0
62 2 68 23 72 12 2 139 4 282 3 l260 -1 0 -75z m479 52 c75 -34 111 -66 140
-124 57 -115 12 -277 -89 -316 -22 -8 -41 -16 -43 -17 -5 -4 104 -168 142
-213 20 -24 36 -48 36 -52 0 -5 -36 -10 -79 -12 l-80 -3 -61 91 c-33 50 -66
105 -72 122 -12 32 -13 32 -80 32 l-68 0 0 -104 c0 -57 -3 -111 -6 -120 -5
-12 -21 -16 -75 -16 l-69 0 0 381 0 381 178 -4 c157 -3 183 -7 226 -26z m759
-1 c66 -32 157 -118 192 -183 28 -49 30 -60 30 -158 0 -88 -4 -113 -23 -154
-90 -197 -317 -290 -494 -203 -85 42 -161 116 -200 195 -30 60 -33 75 -33 152
0 71 5 95 27 142 49 105 133 185 232 220 74 27 204 21 269 -11z m657 -78 c72
-183 108 -288 116 -339 5 -38 9 -44 15 -29 4 11 30 85 58 165 51 143 128 304
145 302 13 -2 146 -328 166 -409 8 -29 17 -50 21 -48 3 3 12 25 18 49 16 63
129 366 146 393 14 21 23 23 90 23 41 0 75 -1 75 -3 0 -8 -91 -248 -113 -297
-13 -30 -48 -120 -77 -200 -55 -152 -108 -270 -120 -270 -13 0 -48 45 -73 95
-26 53 -132 291 -138 313 -2 7 -26 -43 -53 -110 -57 -142 -118 -269 -139 -286
-11 -9 -17 -8 -30 6 -22 24 -96 194 -150 342 -25 69 -66 179 -92 245 -26 66
-51 130 -56 143 -8 22 -7 22 70 22 l78 0 43 -107z m1690 -193 l0 -300 160 0
160 0 0 -80 0 -80 -230 0 c-126 0 -230 3 -230 8 0 4 -3 175 -6 380 l-6 372 76
0 76 0 0 -300z m550 0 l0 -300 165 0 165 0 0 -80 0 -80 -233 0 -234 0 -6 248
c-9 316 -9 497 0 505 3 4 37 7 75 7 l68 0 0 -300z m895 220 l0 -75 -168 0
-167 0 0 -77 0 -78 160 0 160 0 0 -70 0 -70 -165 0 -165 0 0 -64 c0 -69 7 -99
21 -91 4 3 84 3 176 -1 l168 -7 2 -73 2 -74 -254 0 -255 0 0 373 c0 206 3 377
7 381 4 3 113 5 242 4 l236 -3 0 -75z m645 1 l0 -81 -110 0 -110 0 0 -208 c0
-115 -3 -250 -6 -300 l-7 -92 -63 0 -64 0 0 300 0 299 -97 3 -98 3 -7 65 c-4
36 -6 70 -4 76 3 8 86 12 285 13 l281 2 0 -80z"/>
<path d="M5050 8750 c-132 -8 -336 -40 -566 -89 -196 -42 -430 -123 -614 -214
-284 -139 -581 -345 -731 -506 -34 -35 -52 -48 -66 -45 -14 4 -31 -8 -61 -40
-23 -25 -42 -50 -42 -55 0 -4 -38 -55 -85 -112 -47 -57 -111 -142 -142 -189
-32 -47 -69 -101 -84 -120 -90 -117 -284 -524 -368 -771 -91 -271 -148 -528
-161 -724 -6 -88 -18 -202 -27 -253 -15 -90 -15 -96 5 -180 11 -48 23 -118 27
-157 34 -385 197 -846 442 -1253 105 -174 287 -415 408 -540 448 -464 1061
-791 1680 -897 131 -22 340 -45 415 -45 37 -1 76 -7 90 -15 36 -21 99 -18 138
5 27 16 50 20 130 20 100 0 302 26 468 60 370 76 810 270 1119 494 154 111
238 181 385 320 136 128 174 172 282 326 143 202 179 260 257 410 214 412 332
809 348 1170 5 117 9 136 26 150 13 11 21 33 24 66 4 42 1 54 -19 79 -22 26
-26 43 -32 140 -4 61 -11 142 -17 180 -25 183 -107 495 -179 685 -45 118 -47
128 -23 109 15 -12 16 -12 10 4 -4 10 -7 24 -7 30 -1 7 -15 -4 -33 -24 -18
-19 -59 -55 -92 -79 -69 -51 -128 -61 -209 -36 -56 17 -66 14 -66 -17 0 -42
-27 -121 -85 -247 -31 -69 -85 -209 -120 -311 -72 -212 -91 -254 -150 -324
-52 -62 -84 -110 -169 -252 -89 -149 -171 -226 -307 -293 -54 -27 -94 -50 -88
-52 6 -2 2 -13 -10 -27 -11 -12 -22 -35 -26 -49 -4 -19 -19 -35 -48 -51 -23
-12 -64 -49 -92 -82 -27 -33 -55 -65 -61 -72 -6 -7 -9 -18 -6 -25 3 -9 -4 -7
-17 4 -24 21 -27 28 -7 21 18 -7 28 3 17 17 -5 6 -12 22 -16 35 -5 18 -4 22 5
16 9 -5 11 -4 6 4 -6 9 -11 9 -21 1 -8 -7 -20 -8 -26 -4 -8 4 -9 3 -5 -4 10
-16 1 -15 -34 3 -27 14 -29 14 -27 -5 1 -11 4 -20 8 -20 4 0 5 -9 2 -20 -3
-11 -9 -20 -14 -20 -5 0 -6 -6 -3 -14 3 -7 -3 -22 -13 -31 -10 -10 -22 -28
-28 -39 -6 -12 -20 -25 -32 -31 -12 -5 -23 -19 -26 -31 -5 -26 8 -52 20 -41 4
5 1 13 -7 18 -13 9 -13 10 0 6 27 -7 17 -32 -13 -31 -19 1 -25 -2 -18 -9 5 -5
7 -16 4 -23 -3 -8 0 -14 7 -14 6 0 8 -4 5 -10 -3 -6 1 -7 10 -4 14 6 14 8 -2
21 -17 14 -17 14 0 9 10 -3 21 -6 23 -6 13 0 0 -30 -21 -50 l-26 -24 26 -13
c25 -14 34 -33 15 -33 -5 0 -10 5 -10 11 0 5 -5 7 -11 3 -6 -3 -9 -14 -6 -23
3 -14 -2 -18 -27 -18 -17 0 -37 7 -44 16 -12 14 -13 14 -8 -1 4 -13 0 -18 -15
-18 -24 0 -37 28 -18 42 11 8 11 9 -3 5 -20 -7 -31 16 -15 32 6 6 8 11 4 11
-12 0 -47 -44 -47 -59 0 -12 3 -12 12 -3 17 17 33 15 18 -3 -7 -8 -20 -14 -29
-13 -11 2 -16 -5 -16 -24 -1 -40 -12 -44 -29 -9 -22 41 -20 54 5 46 l22 -7
-21 22 c-21 22 -52 22 -52 0 0 -6 4 -8 10 -5 6 3 7 -1 4 -9 -6 -17 -24 -22
-24 -8 0 5 -7 9 -15 9 -9 0 -14 -6 -11 -14 6 -16 1 -16 -24 -3 -15 8 -21 6
-30 -10 -14 -25 -32 -25 -55 0 -22 24 -31 19 -15 -9 11 -22 7 -25 -36 -22 -12
1 -24 -4 -27 -12 -4 -10 2 -13 21 -10 25 4 26 3 7 -9 -25 -16 -38 -17 -47 -3
-5 6 -8 3 -8 -6 0 -22 -18 -35 -60 -42 -19 -3 -29 -3 -22 0 23 9 2 21 -29 16
-19 -3 -29 -1 -25 5 3 5 -1 15 -9 22 -14 12 -20 7 -16 -14 1 -5 -5 -6 -13 -3
-9 4 -18 1 -22 -5 -4 -7 -3 -8 4 -4 7 4 12 2 12 -4 0 -6 -6 -13 -14 -16 -8 -3
-12 -12 -9 -20 7 -18 -11 -18 -26 0 -10 11 -8 17 6 25 17 11 17 11 -2 10 -34
-2 -46 1 -41 10 3 5 -10 16 -28 25 -19 9 -36 22 -39 29 -3 6 -10 -1 -16 -18
-7 -16 -21 -48 -31 -70 -11 -22 -24 -73 -30 -113 -13 -95 -42 -174 -134 -365
-130 -272 -196 -355 -374 -472 -104 -67 -208 -105 -291 -105 -143 1 -305 100
-369 227 -35 68 -79 206 -91 283 -7 41 -13 75 -15 77 -1 2 -24 -11 -49 -27
-134 -85 -228 -114 -352 -108 -113 5 -178 33 -257 111 -102 100 -157 244 -165
433 -5 104 -3 120 26 222 33 114 78 234 110 288 l19 31 -68 6 c-38 3 -94 17
-128 31 -59 25 -63 25 -96 9 -30 -14 -41 -14 -81 -3 -100 28 -218 119 -260
200 -56 109 -90 437 -56 534 11 31 12 73 7 184 l-7 144 41 39 40 39 -6 79 -7
80 36 36 c29 29 42 35 76 35 37 0 44 4 69 40 103 153 225 248 320 250 36 0 78
26 152 95 50 45 103 80 187 123 134 68 263 123 346 147 31 9 61 24 66 34 6 9
35 89 66 177 67 188 155 366 234 472 120 161 346 343 446 357 23 4 60 2 83 -4
39 -11 43 -10 88 24 72 55 102 68 148 62 40 -4 216 -70 506 -189 80 -33 190
-77 245 -98 55 -21 125 -49 155 -62 30 -14 100 -40 155 -58 116 -39 153 -69
181 -148 15 -40 25 -54 49 -63 103 -37 129 -64 169 -170 41 -111 59 -222 52
-329 -7 -116 -49 -281 -104 -407 -22 -51 -36 -93 -31 -93 5 0 9 5 9 11 0 5 5
7 10 4 14 -9 6 -61 -9 -57 -6 1 -14 -5 -17 -13 -4 -8 -11 -15 -17 -15 -7 0 -7
4 1 12 7 7 12 21 12 32 0 12 -21 -12 -55 -63 -30 -46 -55 -86 -55 -90 1 -3 20
-20 43 -38 48 -37 46 -39 83 71 17 50 49 112 91 174 46 67 75 124 100 196 42
122 75 188 119 242 34 42 163 144 181 144 6 0 16 6 22 14 9 11 -14 30 -117
100 -163 108 -187 139 -187 240 0 81 14 115 135 321 38 66 70 124 70 128 0 5
-8 6 -18 3 -13 -4 -49 15 -113 58 -151 104 -265 171 -409 240 -302 145 -532
205 -950 249 l-115 12 -3 55 c-3 51 0 59 30 94 l34 39 124 -17 c304 -40 421
-67 685 -153 202 -66 215 -72 282 -133 45 -42 58 -48 105 -52 43 -3 73 -15
144 -58 105 -63 216 -141 260 -182 l31 -29 15 23 c31 48 89 170 83 176 -3 4
-10 0 -14 -7 -13 -20 -49 -8 -111 39 -30 22 -113 74 -185 116 -71 41 -145 85
-163 96 -45 28 -294 132 -417 174 -129 44 -223 69 -411 105 -319 62 -490 75
-744 59z m79 -174 c15 -18 34 -122 26 -145 -4 -15 -20 -20 -83 -25 -196 -17
-502 -73 -640 -117 -51 -16 -97 -29 -103 -29 -6 0 -70 -23 -143 -52 -323 -127
-647 -340 -897 -588 -253 -252 -406 -484 -563 -852 -135 -317 -209 -613 -237
-958 -6 -80 -16 -149 -20 -154 -6 -6 -9 -3 -9 7 0 15 -12 17 -97 17 l-96 0 6
103 c11 178 78 516 140 707 61 186 163 446 205 520 186 332 346 559 472 671
37 33 81 78 96 101 82 118 669 517 728 495 21 -8 108 12 127 29 10 9 21 28 24
43 5 25 17 32 128 69 185 63 431 119 637 146 219 29 283 31 299 12z m74 -362
c9 -10 -4 -34 -19 -34 -8 0 -14 9 -14 20 0 19 19 27 33 14z m405 -100 c4 -29
-23 -51 -43 -34 -16 13 -20 42 -8 54 14 14 48 1 51 -20z m-784 -1 c8 -21 -17
-48 -38 -40 -9 4 -16 18 -16 32 0 20 5 25 24 25 13 0 27 -8 30 -17z m-386 -40
c2 -13 -4 -26 -15 -32 -28 -14 -47 2 -39 34 5 20 12 26 29 23 14 -2 23 -11 25
-25z m1282 -104 c0 -5 -4 -9 -10 -9 -5 0 -10 7 -10 16 0 8 5 12 10 9 6 -3 10
-10 10 -16z m-1498 -26 c24 -21 23 -55 -2 -78 -20 -18 -21 -18 -45 5 -30 28
-31 44 -5 70 24 24 28 25 52 3z m2356 -171 c2 -12 -1 -22 -6 -22 -15 0 -34 28
-27 40 10 17 30 6 33 -18z m-388 -7 c0 -8 -4 -15 -9 -15 -13 0 -22 16 -14 24
11 11 23 6 23 -9z m-2286 -105 c23 -11 48 -20 54 -20 27 0 9 -19 -30 -32 -43
-15 -57 -31 -79 -93 l-11 -30 -14 35 c-20 47 -50 77 -90 90 -19 7 -34 15 -34
19 0 3 19 13 42 21 33 12 48 25 67 59 l24 44 14 -36 c11 -26 27 -42 57 -57z
m2528 -92 c-9 -9 -12 -7 -12 12 0 19 3 21 12 12 9 -9 9 -15 0 -24z m188 -78
c0 -5 -4 -10 -10 -10 -5 0 -10 5 -10 10 0 6 5 10 10 10 6 0 10 -4 10 -10z
m-2900 -175 l24 -26 -30 -30 -30 -29 -29 30 -29 30 24 25 c29 31 41 31 70 0z
m-361 -113 c2 -77 42 -120 146 -157 68 -25 73 -31 28 -40 -105 -19 -148 -60
-176 -168 -9 -33 -17 -61 -20 -63 -2 -2 -10 22 -17 53 -24 109 -53 140 -158
169 -34 10 -62 21 -62 25 0 4 23 12 50 18 106 23 151 65 176 165 18 73 32 71
33 -2z m3374 -28 c9 -10 -4 -34 -19 -34 -8 0 -14 6 -14 13 0 22 19 35 33 21z
m-3191 -366 c-9 -9 -12 -7 -12 12 0 19 3 21 12 12 9 -9 9 -15 0 -24z m-507
-79 l26 -32 -22 -23 c-26 -28 -46 -30 -71 -7 -24 21 -23 42 4 70 28 30 31 29
63 -8z m4995 -384 c64 -212 130 -604 109 -646 -6 -11 -29 -18 -81 -23 -40 -3
-82 -7 -93 -9 -18 -2 -22 12 -46 193 -16 119 -44 269 -73 384 -43 172 -50 225
-26 186 7 -10 8 1 4 32 -6 44 -5 47 25 63 49 25 71 52 72 88 0 26 8 12 40 -68
22 -55 53 -145 69 -200z m-5152 116 c21 -13 10 -46 -16 -49 -17 -3 -22 1 -22
21 0 35 13 45 38 28z m3537 -213 c6 -4 2 -8 -7 -8 -10 0 -18 7 -18 17 0 9 3
12 8 7 4 -5 12 -12 17 -16z m1282 -144 c18 -28 12 -48 -20 -68 -13 -8 -20 -6
-31 9 -20 26 -20 44 1 67 22 24 29 23 50 -8z m-91 -593 l51 -25 -41 -20 c-30
-16 -48 -34 -67 -71 l-25 -51 -25 51 c-16 34 -34 55 -56 65 -18 8 -33 17 -33
20 0 3 14 13 30 22 33 19 70 73 70 103 0 13 8 5 23 -24 18 -34 35 -51 73 -70z
m-5114 -131 c11 -175 75 -458 145 -644 147 -387 375 -749 637 -1012 284 -284
634 -508 1009 -645 106 -38 380 -114 487 -134 126 -23 383 -38 570 -32 433 14
903 157 1310 400 156 93 365 261 522 419 423 425 722 1078 755 1645 7 129 -5
119 123 103 41 -6 80 -16 86 -22 35 -37 -69 -611 -121 -668 -8 -9 -16 -27 -17
-41 -2 -13 -6 -26 -10 -29 -14 -11 -78 -211 -72 -222 5 -7 2 -8 -6 -3 -10 6
-12 4 -7 -9 4 -9 3 -15 -2 -12 -5 3 -42 -61 -83 -142 -203 -401 -450 -699
-822 -988 -204 -158 -330 -234 -587 -350 -254 -114 -658 -218 -982 -252 -83
-9 -89 -6 -116 45 -15 30 -14 35 9 28 11 -3 20 -2 20 4 0 5 24 14 53 19 38 7
-9 9 -183 9 -164 0 -214 -2 -166 -8 38 -4 80 -10 94 -14 23 -6 23 -6 7 -32
-14 -21 -15 -27 -4 -35 25 -17 -219 0 -361 26 -355 64 -553 123 -725 215 -38
21 -97 48 -130 61 -33 13 -65 27 -71 32 -7 5 -39 22 -72 38 -32 15 -103 58
-156 94 -52 36 -98 66 -100 66 -11 0 -172 127 -239 187 -39 36 -89 81 -110
100 -20 19 -41 32 -46 29 -12 -8 -37 24 -45 57 -4 16 -32 56 -64 90 -31 35
-79 87 -105 117 -30 35 -42 44 -31 25 l16 -30 -20 25 c-11 13 -18 28 -15 33 5
8 -43 87 -53 87 -6 0 1 -13 28 -52 11 -16 17 -28 14 -28 -9 0 -47 59 -51 80
-2 11 -22 46 -44 78 -22 31 -62 98 -90 147 -27 50 -54 89 -59 88 -13 -3 -54
75 -46 89 4 6 3 8 -3 5 -18 -11 -131 259 -182 438 -36 125 -97 418 -106 515
-6 57 -4 67 13 83 23 21 90 36 152 34 l45 -2 7 -105z m5213 -170 c13 -42 -28
-68 -55 -35 -10 12 -9 20 4 40 17 27 42 25 51 -5z m-785 -31 c0 -5 -4 -9 -10
-9 -5 0 -10 7 -10 16 0 8 5 12 10 9 6 -3 10 -10 10 -16z m-160 -103 c0 -2 -7
-6 -15 -10 -8 -3 -15 -1 -15 4 0 6 7 10 15 10 8 0 15 -2 15 -4z m898 -132 c4
-27 -23 -38 -43 -18 -12 13 -13 19 -4 30 17 20 43 13 47 -12z m-242 -77 c14
-15 37 -30 50 -33 34 -9 30 -19 -13 -41 -26 -12 -45 -32 -60 -62 -18 -36 -24
-41 -28 -25 -14 46 -33 70 -68 87 -45 21 -46 31 -6 47 17 7 40 30 52 51 20 35
23 37 35 21 7 -9 24 -29 38 -45z m-942 45 c2 -4 -7 -9 -22 -10 -21 -1 -24 0
-12 8 18 12 27 12 34 2z m-29 -24 c4 4 6 1 3 -7 -7 -23 -25 -24 -31 -1 -4 16
-2 19 7 11 7 -6 16 -7 21 -3z m-38 -30 c-3 -8 -6 -5 -6 6 -1 11 2 17 5 13 3
-3 4 -12 1 -19z m-33 -64 c-25 -27 -26 -28 -14 -4 13 25 31 42 38 36 2 -2 -9
-17 -24 -32z m51 6 c-3 -5 -11 -10 -16 -10 -6 0 -7 5 -4 10 3 6 11 10 16 10 6
0 7 -4 4 -10z m-3367 -62 c17 -17 15 -48 -4 -55 -23 -8 -47 20 -39 46 7 23 25
27 43 9z m3767 -8 c3 -5 1 -10 -4 -10 -6 0 -11 5 -11 10 0 6 2 10 4 10 3 0 8
-4 11 -10z m-258 -49 c12 -6 38 -11 57 -11 46 0 46 -20 0 -42 -32 -17 -37 -17
-59 -2 -30 19 -63 74 -57 93 4 11 9 10 21 -6 9 -11 26 -25 38 -32z m288 -201
c10 -75 43 -200 61 -228 23 -34 69 -59 148 -77 99 -23 136 -35 136 -44 0 -4
-39 -16 -87 -25 -100 -19 -169 -50 -195 -86 -10 -14 -30 -74 -44 -135 -14 -60
-28 -117 -31 -125 -3 -8 -19 42 -37 111 -33 135 -46 159 -107 190 -35 17 -215
59 -258 59 -12 0 -21 4 -21 10 0 10 20 16 179 54 69 17 113 33 129 48 34 32
58 90 72 178 26 164 40 183 55 70z m-475 30 c0 -14 -60 -80 -74 -80 -6 0 -18
5 -26 10 -13 8 -13 11 -1 19 8 5 10 14 6 21 -5 9 -4 11 3 6 7 -4 12 -2 12 3 0
15 27 14 32 -1 4 -10 9 -8 21 3 9 9 13 19 10 23 -4 3 -1 6 5 6 7 0 12 -4 12
-10z m-938 -102 c-9 -9 -12 -7 -12 12 0 19 3 21 12 12 9 -9 9 -15 0 -24z m181
-3 c-3 -8 -10 -15 -15 -15 -7 0 -6 5 1 13 6 8 7 18 3 22 -4 5 -2 5 5 1 7 -4
10 -13 6 -21z m1702 -11 l28 -36 -34 -34 -34 -33 -39 36 c-37 34 -38 37 -21
47 10 6 28 21 39 32 12 12 24 22 27 23 4 1 19 -15 34 -35z m-1490 7 c-3 -6
-11 -11 -17 -11 -6 0 -6 6 2 15 14 17 26 13 15 -4z m585 9 c0 -5 -5 -10 -11
-10 -5 0 -7 5 -4 10 3 6 8 10 11 10 2 0 4 -4 4 -10z m-568 -52 c-15 -15 -26
-4 -18 18 5 13 9 15 18 6 9 -9 9 -15 0 -24z m166 -9 c-3 -8 -7 -3 -11 10 -4
17 -3 21 5 13 5 -5 8 -16 6 -23z m-2899 -53 c-6 -6 -13 -6 -21 2 -8 8 -8 15 2
28 13 15 15 14 21 -3 4 -10 3 -22 -2 -27z m2441 36 c0 -4 -9 -13 -20 -20 -22
-13 -27 -3 -8 16 14 14 28 16 28 4z m-2930 -42 c6 -11 8 -20 6 -20 -3 0 -10 9
-16 20 -6 11 -8 20 -6 20 3 0 10 -9 16 -20z m3279 -134 l23 -24 -22 -12 c-29
-15 -64 -9 -68 13 -10 50 30 63 67 23z m-434 -56 c9 -15 -4 -50 -19 -50 -20 0
-39 27 -32 45 6 17 42 20 51 5z m155 -160 c0 -11 -4 -20 -10 -20 -5 0 -10 9
-10 20 0 11 5 20 10 20 6 0 10 -9 10 -20z m850 -145 c0 -8 -7 -15 -15 -15 -16
0 -20 12 -8 23 11 12 23 8 23 -8z m-1078 -30 c15 -34 -8 -61 -46 -51 -20 5
-26 13 -26 35 0 34 6 41 37 41 15 0 27 -9 35 -25z m1096 -220 c18 -19 32 -38
31 -42 0 -5 -16 -21 -34 -36 l-34 -28 -39 43 -40 42 27 14 c14 7 30 20 34 28
12 21 20 18 55 -21z m-348 -99 c0 -25 -12 -46 -25 -46 -7 0 -16 7 -19 16 -12
31 -6 44 19 44 15 0 25 -6 25 -14z m-516 -222 l29 -35 -28 -29 c-35 -36 -48
-37 -69 -6 -8 14 -25 28 -37 31 -20 7 -19 8 10 26 18 11 34 26 37 34 9 23 26
17 58 -21z"/>
<path d="M2521 4505 c0 -5 8 -26 19 -45 11 -19 19 -30 19 -25 0 6 -8 26 -19
45 -11 19 -19 31 -19 25z"/>
<path d="M6645 3230 c-3 -6 1 -7 9 -4 18 7 21 14 7 14 -6 0 -13 -4 -16 -10z"/>
<path d="M6555 3180 c-3 -6 1 -7 9 -4 18 7 21 14 7 14 -6 0 -13 -4 -16 -10z"/>
<path d="M6450 3130 c-30 -16 -50 -29 -45 -29 6 0 35 13 65 29 30 16 51 29 45
29 -5 0 -35 -13 -65 -29z"/>
<path d="M3997 3129 c7 -7 15 -10 18 -7 3 3 -2 9 -12 12 -14 6 -15 5 -6 -5z"/>
<path d="M4090 3080 c30 -16 76 -36 103 -45 26 -9 45 -21 41 -26 -3 -5 3 -8
13 -7 10 1 52 -8 93 -20 41 -12 100 -30 130 -39 30 -9 73 -20 95 -24 22 -4 94
-19 160 -33 66 -14 131 -25 145 -25 14 0 -36 13 -110 29 -262 53 -440 106
-616 181 -108 46 -131 50 -54 9z"/>
<path d="M6320 3070 c-9 -6 -10 -10 -3 -10 6 0 15 5 18 10 8 12 4 12 -15 0z"/>
<path d="M6150 3004 c-52 -19 -160 -50 -240 -69 -80 -19 -139 -34 -131 -34 61
-3 377 80 448 118 56 30 30 25 -77 -15z"/>
<path d="M4933 2853 c9 -2 23 -2 30 0 6 3 -1 5 -18 5 -16 0 -22 -2 -12 -5z"/>
<path d="M6303 4464 c-15 -16 -16 -24 -4 -24 8 0 24 30 19 35 -2 2 -9 -3 -15
-11z"/>
<path d="M7687 8528 c-20 -5 -51 -23 -69 -40 -30 -28 -35 -29 -69 -19 -56 17
-108 13 -140 -10 -16 -11 -62 -75 -101 -142 -40 -67 -109 -180 -153 -252 -45
-71 -149 -240 -230 -375 -164 -269 -172 -294 -128 -355 21 -30 282 -214 359
-253 76 -39 74 -48 -13 -67 -43 -9 -100 -29 -127 -43 -71 -38 -190 -159 -206
-207 -7 -22 -30 -87 -52 -145 -22 -58 -44 -117 -50 -132 -6 -15 -30 -53 -55
-85 -59 -76 -80 -119 -104 -211 -24 -97 -38 -132 -53 -132 -12 0 -32 13 -142
97 -38 29 -77 58 -88 65 -17 13 -15 18 37 87 127 169 235 439 244 611 6 112
-14 248 -48 335 -23 58 -26 61 -84 83 -86 33 -85 32 -110 100 -13 35 -30 71
-40 81 -9 11 -46 26 -83 36 -37 9 -87 26 -112 37 -25 11 -92 40 -150 63 -58
24 -166 69 -240 100 -74 31 -194 78 -266 105 -71 26 -163 62 -203 79 -100 43
-122 41 -183 -14 -54 -49 -87 -55 -173 -35 -53 13 -91 0 -191 -66 -208 -137
-379 -397 -496 -759 -28 -88 -55 -165 -60 -172 -5 -6 -24 -15 -41 -19 -58 -12
-210 -75 -352 -146 -119 -60 -149 -80 -207 -139 -70 -70 -80 -75 -200 -99 -40
-8 -77 -25 -125 -59 -70 -50 -105 -91 -144 -173 l-23 -48 -62 0 c-43 0 -67 -5
-78 -15 -17 -17 -14 -31 21 -92 30 -52 29 -116 -2 -121 -11 -2 -37 -8 -57 -13
-35 -9 -38 -12 -38 -47 0 -20 9 -76 22 -123 22 -85 22 -86 3 -155 -24 -92 -30
-168 -16 -229 6 -27 15 -92 20 -143 11 -125 36 -165 156 -249 117 -83 141 -82
160 6 5 23 4 31 -4 27 -14 -9 -14 6 1 39 9 21 9 31 0 46 -10 16 -9 19 7 19 10
0 33 3 50 6 l31 6 -15 -42 c-20 -56 -19 -79 5 -117 26 -43 91 -75 166 -81 56
-4 63 -2 78 19 19 28 22 136 5 220 -8 41 -7 86 5 192 14 132 16 139 46 167 24
22 30 36 30 69 0 35 -3 41 -21 41 -21 0 -21 0 -2 18 11 9 32 47 47 84 19 46
34 68 49 72 34 9 250 7 266 -3 16 -10 5 -92 -35 -259 -18 -73 -24 -126 -23
-181 3 -76 2 -79 -43 -152 -24 -41 -78 -108 -119 -149 -41 -41 -91 -102 -110
-135 -20 -33 -54 -89 -76 -125 -42 -70 -98 -204 -129 -310 -25 -87 -25 -240 0
-337 34 -135 116 -240 226 -291 44 -21 71 -26 135 -26 74 -1 87 2 165 40 50
24 124 72 179 117 52 43 98 77 103 77 4 0 8 -60 8 -133 0 -215 49 -358 156
-456 76 -69 113 -85 217 -89 99 -4 181 18 247 66 82 61 214 200 263 280 70
113 67 107 148 281 62 136 71 163 76 230 5 63 13 89 45 152 36 69 40 83 45
176 l6 101 37 6 c75 12 129 97 130 204 0 34 4 62 8 62 19 0 129 110 164 164
36 57 44 77 68 174 10 39 13 42 44 42 19 0 64 -11 101 -25 100 -38 290 -63
535 -71 204 -6 219 -5 290 16 41 12 93 32 115 45 75 43 184 172 269 316 44 74
92 152 107 174 15 22 48 69 73 105 38 55 51 86 81 199 20 74 48 157 64 185 16
28 40 83 55 123 14 40 39 99 56 133 18 36 33 83 36 119 6 50 3 67 -20 116 -14
32 -24 60 -22 63 3 2 27 -8 53 -24 125 -72 135 -76 198 -72 96 6 143 39 219
156 34 53 82 133 106 177 24 44 110 181 191 305 80 124 159 249 174 279 36 73
32 129 -18 208 -42 70 -53 119 -37 168 20 61 9 78 -82 126 -141 73 -362 221
-516 345 -37 31 -103 40 -165 22z m156 -105 c30 -21 118 -86 195 -144 132
-101 249 -177 306 -199 29 -11 31 -24 15 -99 l-10 -49 -67 51 c-37 28 -110 79
-162 114 -52 35 -111 74 -130 87 -19 13 -75 47 -125 76 -85 50 -145 95 -145
111 0 4 10 9 22 12 12 4 19 9 16 13 -4 3 -22 0 -42 -7 -62 -23 -56 13 9 53 42
25 54 23 118 -19z m-278 -68 c22 -14 123 -76 225 -139 102 -63 238 -150 304
-193 65 -43 151 -97 190 -120 103 -60 116 -72 132 -109 16 -37 7 -100 -22
-158 -59 -116 -178 -317 -227 -384 -61 -84 -56 -52 7 45 165 253 226 371 226
436 0 38 -40 92 -79 105 -25 9 -30 8 -34 -10 -6 -23 -25 -20 -41 6 -9 13 -7
19 8 28 17 9 16 12 -10 29 -37 24 -51 24 -59 -1 -10 -31 -25 -24 -25 13 0 17
-4 37 -8 43 -7 11 -118 85 -189 125 -23 13 -96 59 -163 102 -67 42 -125 77
-131 77 -5 0 -9 -6 -9 -14 0 -8 -5 -18 -11 -22 -17 -10 -29 17 -18 39 8 14 6
22 -8 33 -30 23 -59 18 -55 -8 5 -26 -6 -22 -50 18 -22 19 -45 33 -51 31 -7
-2 -12 -24 -12 -52 0 -48 -19 -73 -31 -41 -3 9 -10 16 -15 16 -13 0 -11 -34 3
-65 14 -31 6 -40 -23 -25 -19 11 -25 10 -36 -6 -27 -37 -12 0 39 94 28 52 60
104 70 114 25 25 57 23 103 -7z m191 -180 c18 -14 17 -14 -13 -15 -23 0 -33 5
-33 15 0 19 21 19 46 0z m-406 -89 c0 -37 -15 -56 -46 -56 -25 0 -34 -17 -34
-65 0 -40 -8 -47 -37 -31 -22 11 -22 12 27 81 27 39 54 80 60 93 13 31 30 19
30 -22z m466 29 c16 -12 16 -14 3 -15 -9 0 -22 7 -29 15 -16 19 0 19 26 0z
m98 -34 c8 -12 -21 -34 -34 -26 -17 11 -11 35 9 35 11 0 22 -4 25 -9z m86 -66
c10 -12 10 -19 2 -27 -15 -15 -48 14 -38 31 10 15 21 14 36 -4z m98 -71 c-2
-10 -11 -20 -20 -22 -15 -3 -16 0 -6 28 11 33 33 28 26 -6z m-893 -122 c-5
-14 -9 -13 -28 6 l-22 22 20 37 20 36 8 -42 c5 -24 6 -50 2 -59z m-1750 -50
c176 -71 381 -155 455 -187 74 -32 173 -68 220 -82 47 -13 92 -31 100 -39 9
-9 17 -41 20 -82 l5 -66 79 -22 c43 -12 87 -31 97 -41 16 -15 23 -54 40 -201
13 -115 18 -197 13 -220 -7 -35 -8 -34 -16 33 -8 65 -28 115 -47 115 -15 0
-21 -59 -21 -205 0 -194 -17 -242 -139 -403 -62 -80 -91 -96 -122 -65 -19 18
-19 21 20 173 22 85 57 220 79 300 61 222 65 248 47 276 -17 26 -92 67 -169
94 -53 18 -72 40 -35 40 13 0 49 -5 82 -12 53 -11 60 -11 68 5 6 9 17 17 24
17 9 0 15 9 15 23 -1 20 -1 21 -11 4 -10 -17 -13 -17 -27 -3 -17 15 -94 42
-255 91 -49 15 -86 29 -84 32 3 3 43 -5 89 -17 90 -25 178 -37 143 -21 -11 5
-76 24 -145 42 -104 28 -135 41 -185 77 -95 68 -175 101 -359 147 -119 30
-200 56 -266 88 -69 33 -99 43 -112 36 -9 -5 -27 -9 -39 -9 -21 0 -21 3 -15
56 8 71 75 169 110 161 11 -3 165 -64 341 -135z m2310 110 c110 -53 178 -161
178 -286 1 -84 -16 -127 -70 -186 -49 -55 -106 -80 -199 -87 -90 -7 -144 11
-199 65 -60 59 -90 133 -90 222 1 64 5 83 32 135 39 75 85 120 149 145 71 28
128 25 199 -8z m-2880 -71 c45 -16 50 -21 56 -54 8 -50 15 -54 23 -16 3 18 1
38 -5 45 -9 11 -6 14 15 14 25 0 26 -2 20 -42 -4 -24 -8 -50 -8 -58 -1 -9 25
-24 74 -41 41 -14 107 -42 145 -62 57 -29 65 -36 43 -37 -15 0 -51 13 -80 28
-44 24 -190 82 -206 82 -2 0 -1 -11 2 -24 8 -31 -5 -35 -104 -39 -71 -4 -75
-5 -105 -40 -18 -20 -42 -67 -53 -104 -24 -73 -67 -143 -88 -143 -9 0 -14 -13
-15 -37 -1 -21 -3 -30 -6 -20 -2 9 -8 17 -13 17 -4 0 -33 -29 -65 -65 -54 -62
-56 -67 -41 -84 23 -26 20 -31 -13 -18 -57 21 -81 -15 -38 -61 l22 -24 -47 7
-48 7 0 -41 c0 -41 -1 -43 -56 -67 -31 -13 -66 -26 -77 -27 -19 -2 -21 2 -19
28 7 54 83 268 130 364 102 210 227 368 382 483 73 53 95 57 175 29z m2258
-71 c2 -16 -26 -25 -49 -16 -12 4 -10 13 8 52 l23 46 8 -34 c4 -18 9 -40 10
-48z m1211 -55 c-7 -38 -7 -38 -20 -14 -24 44 -14 93 14 66 9 -10 11 -25 6
-52z m-1270 -17 c15 -25 -5 -44 -31 -29 -14 7 -23 7 -33 -2 -7 -7 -5 2 4 21
18 36 41 39 60 10z m1221 -63 c0 -10 -6 -20 -12 -22 -8 -3 -13 5 -13 22 0 17
5 25 13 23 6 -3 12 -13 12 -23z m-1287 -47 c2 -11 -8 -23 -27 -33 -28 -14 -31
-14 -31 0 0 43 50 72 58 33z m-2108 -23 c71 -24 110 -48 110 -67 0 -16 -82
-148 -91 -148 -5 0 -9 4 -9 9 0 10 -90 55 -96 48 -2 -2 14 -12 36 -22 64 -29
72 -43 50 -90 -10 -22 -19 -34 -19 -28 -1 15 -84 58 -129 66 -33 7 -33 6 -62
-59 -17 -36 -30 -69 -30 -74 0 -10 66 -36 113 -45 34 -7 49 -27 29 -39 -12 -7
-163 55 -169 70 -3 8 8 49 25 92 16 42 38 102 47 132 18 55 59 144 77 168 15
17 35 15 118 -13z m3350 9 c0 -12 -34 -64 -42 -64 -14 0 -9 33 9 52 16 18 33
24 33 12z m-1340 -90 c-30 -48 -37 -36 -9 18 12 23 24 37 26 31 3 -7 -5 -29
-17 -49z m-1372 23 c160 -47 289 -151 358 -292 36 -74 39 -85 39 -167 0 -56
-4 -91 -13 -100 -9 -9 -12 -7 -13 13 0 13 -5 33 -10 44 -6 14 -7 3 -3 -33 7
-61 -3 -182 -15 -182 -5 0 -13 25 -19 54 -23 114 -77 184 -204 266 -65 43
-209 101 -303 124 -138 34 -294 29 -309 -9 -3 -8 -10 -15 -15 -15 -20 0 16 88
52 127 27 31 15 40 -20 16 -69 -48 -72 -36 -8 34 47 53 153 116 221 132 73 17
177 12 262 -12z m2640 -49 c-2 -13 -7 -23 -13 -23 -5 0 -11 10 -13 23 -2 15 2
22 13 22 11 0 15 -7 13 -22z m-1266 -48 c5 -33 0 -36 -27 -16 -11 8 -16 19
-12 30 10 27 34 18 39 -14z m1218 -26 c0 -22 -2 -25 -15 -14 -8 7 -15 19 -15
26 0 8 7 14 15 14 10 0 15 -10 15 -26z m-1122 -46 c4 -35 -4 -35 -48 3 l-35
30 40 -3 c35 -3 40 -6 43 -30z m1082 -17 c0 -22 -25 -45 -40 -36 -11 7 -14 38
-3 48 14 15 43 7 43 -12z m-990 -37 c20 -51 10 -56 -34 -21 -31 25 -29 47 5
47 12 0 23 -10 29 -26z m78 -63 l3 -32 -25 16 c-28 19 -34 40 -13 48 22 9 32
1 35 -32z m840 0 c3 -16 -1 -22 -10 -19 -7 3 -15 15 -16 27 -3 16 1 22 10 19
7 -3 15 -15 16 -27z m-737 -53 c15 -29 28 -38 55 -38 12 0 27 -7 34 -15 7 -8
21 -15 32 -15 11 0 26 -13 36 -30 12 -21 25 -30 43 -30 14 0 36 -11 49 -25 13
-14 31 -25 41 -25 9 0 22 -6 28 -14 7 -8 32 -24 57 -35 45 -21 58 -41 27 -41
-9 0 -24 6 -32 14 -9 8 -48 30 -86 49 -39 20 -87 49 -108 65 -21 17 -79 52
-130 78 -113 58 -123 64 -105 75 23 15 47 10 59 -13z m684 -33 c0 -10 -5 -20
-11 -22 -13 -4 -27 24 -18 38 9 15 29 4 29 -16z m-1799 -39 c36 -13 71 -29 77
-35 8 -8 4 -33 -12 -89 -13 -42 -39 -133 -57 -202 -39 -145 -51 -177 -69 -183
-20 -8 -73 30 -77 55 -2 14 -18 31 -43 45 -36 20 -37 23 -15 23 14 0 48 -11
77 -24 l51 -24 12 27 c6 15 13 45 15 67 2 21 8 52 15 69 10 26 8 31 -12 47
-13 10 -43 25 -68 34 -25 10 -48 20 -53 24 -9 8 9 144 23 171 14 26 54 24 136
-5z m-911 -31 c50 -8 115 -23 145 -33 64 -23 192 -83 187 -88 -2 -3 -37 11
-78 30 -70 32 -155 57 -299 89 -87 19 -66 20 45 2z m2675 -4 c0 -16 -82 -101
-97 -101 -23 0 -14 19 17 35 16 8 37 29 45 45 15 29 35 40 35 21z m-3217 -61
c-3 -62 -9 -71 -40 -59 -29 11 -30 43 -3 87 29 47 46 36 43 -28z m537 25 c130
-32 182 -51 275 -97 179 -90 267 -150 328 -226 50 -64 28 -53 -48 23 -42 41
-97 86 -123 99 -26 13 -87 45 -136 71 -95 51 -251 108 -356 131 -86 18 -203
18 -296 -2 -79 -16 -101 -14 -64 6 66 35 271 33 420 -5z m2739 -12 c-62 -103
-131 -163 -185 -163 -36 0 -83 33 -64 45 8 5 16 1 22 -9 6 -10 22 -16 44 -16
28 0 45 10 88 50 29 27 59 62 66 77 18 35 42 65 48 59 2 -3 -6 -22 -19 -43z
m-636 -72 c74 -48 127 -101 155 -158 43 -83 36 -143 -16 -161 -37 -13 -42 -9
-35 33 3 19 1 35 -6 39 -7 5 -11 -2 -11 -16 0 -39 -12 -68 -26 -68 -10 0 -14
13 -14 45 0 49 -18 103 -41 122 -12 10 -13 2 -11 -50 4 -69 -5 -68 -32 3 -25
64 -41 86 -88 120 -56 41 -78 39 -41 -3 32 -37 59 -94 49 -104 -3 -4 -23 9
-44 29 -58 55 -130 106 -168 118 -29 10 -32 14 -24 31 22 40 116 69 216 66 64
-2 76 -6 137 -46z m-2164 13 c4 -4 -13 -7 -143 -28 -132 -22 -217 -62 -242
-113 -26 -53 -31 -214 -10 -307 9 -38 14 -71 12 -73 -12 -13 -49 121 -53 198
-7 113 13 184 69 246 50 54 80 70 150 82 46 8 206 4 217 -5z m-605 -68 c20 -8
36 -21 37 -28 5 -121 59 -340 110 -445 30 -62 58 -101 117 -162 42 -43 68 -74
57 -69 -42 23 -145 121 -173 166 -36 57 -76 166 -92 253 -27 142 -64 230 -101
237 -18 3 -18 -3 13 -183 12 -66 23 -162 26 -212 3 -80 0 -104 -23 -178 -14
-47 -23 -90 -20 -96 12 -18 -25 -97 -57 -124 -17 -14 -33 -23 -36 -21 -3 3 13
45 36 93 59 128 75 199 75 324 -1 121 -18 195 -65 278 -35 60 -81 117 -109
131 -15 8 -12 -2 14 -57 22 -48 32 -87 35 -133 l4 -65 -42 58 c-45 63 -62 71
-59 30 4 -50 -1 -73 -15 -73 -8 0 -44 31 -81 70 -73 74 -97 82 -66 21 37 -71
40 -160 6 -131 -13 11 -15 8 -15 -20 l0 -32 -76 70 c-70 65 -117 92 -133 77
-3 -4 2 -11 12 -16 24 -14 62 -93 76 -157 16 -75 14 -81 -15 -45 -51 65 -244
205 -244 178 0 -3 18 -30 41 -60 35 -46 69 -124 69 -158 0 -6 -14 10 -30 35
-27 40 -100 109 -100 93 0 -3 14 -29 30 -58 44 -79 37 -88 -20 -25 -27 30 -81
77 -120 104 -57 38 -68 50 -58 60 7 7 83 47 168 90 159 79 324 139 465 169 44
9 96 21 115 26 50 12 201 3 244 -15z m2406 -19 c0 -7 27 -39 60 -72 33 -33 60
-67 60 -77 0 -33 -36 -30 -94 7 -31 20 -63 38 -71 41 -20 8 -20 -22 0 -60 8
-15 15 -30 15 -32 0 -10 -24 -2 -60 21 l-39 25 6 -33 c8 -45 26 -87 67 -157
20 -34 36 -64 36 -67 0 -4 -14 6 -32 23 l-32 29 17 -27 c26 -41 6 -34 -52 18
-58 52 -59 49 -36 -56 8 -36 14 -73 15 -82 0 -22 -23 -23 -56 -2 -13 9 -27 15
-29 12 -8 -7 32 -82 69 -131 20 -26 31 -49 26 -52 -9 -6 -93 73 -126 120 -30
42 -54 25 -76 -51 -23 -81 -22 -151 1 -197 21 -41 13 -50 -12 -14 -15 21 -16
20 -10 -26 5 -42 -1 -70 -24 -106 -1 -2 -16 7 -32 19 -36 25 -35 27 -55 -73
-21 -101 -22 -100 -39 33 -3 23 -4 22 -20 -14 -9 -21 -17 -47 -17 -57 0 -27
-15 -24 -28 5 -22 49 15 115 65 116 17 0 28 14 51 63 16 34 35 87 42 117 22
95 42 154 68 195 32 52 29 49 60 50 25 0 27 4 34 53 5 29 17 74 27 100 11 26
39 97 62 157 51 130 63 152 104 176 35 22 55 24 55 6z m-1230 -244 c24 -98
-26 -218 -140 -335 -69 -70 -170 -128 -220 -128 -18 1 -5 10 45 34 48 22 86
51 122 88 63 67 129 168 143 217 14 51 12 139 -5 186 -20 54 -19 55 14 16 16
-18 34 -53 41 -78z m190 -77 c10 -28 -3 -88 -24 -105 -20 -16 -40 12 -33 47 9
45 26 82 37 82 6 0 15 -11 20 -24z m1507 -63 c-14 -27 -28 -59 -31 -73 -3 -14
-19 -40 -36 -57 -29 -31 -35 -33 -98 -32 -75 1 -114 9 -119 26 -2 6 18 12 54
15 34 3 83 17 118 33 l60 28 -35 9 c-19 6 -59 17 -87 24 -29 8 -53 19 -53 24
0 6 26 10 58 10 41 0 75 9 122 30 36 16 66 25 68 20 2 -5 -8 -31 -21 -57z
m-3837 30 c37 -26 65 -60 116 -141 67 -104 97 -204 99 -325 1 -54 5 -100 7
-103 3 -2 19 11 36 31 36 41 62 118 63 189 0 45 1 48 11 26 15 -37 12 -138 -6
-189 -9 -24 -14 -46 -11 -49 10 -10 65 51 77 85 14 39 28 43 28 8 0 -38 -25
-92 -49 -104 -18 -10 -221 -14 -221 -4 0 2 9 32 21 66 37 109 10 247 -72 368
-42 63 -111 127 -146 135 -13 4 -23 10 -23 15 0 15 44 10 70 -8z m-101 -29
c33 -20 46 -39 56 -82 8 -38 0 -41 -26 -7 -11 13 -42 39 -70 57 -42 27 -47 33
-32 39 28 12 43 10 72 -7z m-54 -76 c88 -86 108 -166 25 -99 -36 29 -140 84
-147 78 -1 -2 21 -28 50 -59 49 -52 137 -201 125 -213 -3 -3 -17 13 -32 35
-44 67 -145 155 -168 148 -7 -3 6 -16 30 -31 23 -15 42 -30 42 -34 0 -4 -5 -2
-12 5 -24 24 -29 11 -9 -20 38 -58 72 -128 61 -128 -5 0 -28 24 -50 54 -22 30
-58 65 -79 79 -69 46 -158 60 -199 31 -31 -21 -37 -13 -17 26 35 68 124 135
235 176 63 23 77 18 145 -48z m970 -150 c-34 -132 -116 -257 -195 -297 -45
-23 -94 -35 -85 -21 3 5 13 10 21 10 7 0 42 28 77 63 75 73 146 207 174 327
l18 75 3 -47 c2 -25 -4 -75 -13 -110z m335 2 c91 -90 176 -146 300 -197 143
-59 260 -67 383 -24 69 24 65 12 -9 -30 -61 -35 -74 -49 -46 -49 18 0 19 -3 6
-76 -13 -72 -26 -104 -44 -104 -16 0 -48 68 -43 92 4 21 -1 26 -39 37 -24 7
-63 23 -88 36 -25 12 -82 34 -126 49 -169 56 -373 244 -408 376 l-7 25 17 -25
c10 -14 56 -63 104 -110z m1200 66 c198 -107 238 -131 293 -175 98 -78 179
-140 191 -145 7 -3 6 -8 -4 -15 -8 -5 -52 -35 -98 -66 -114 -78 -161 -142
-206 -279 -4 -10 -9 -16 -12 -13 -9 8 23 101 67 193 26 54 53 94 84 123 26 24
44 45 42 48 -13 12 -120 -31 -165 -66 -63 -50 -60 -27 9 58 34 43 44 61 33 61
-38 0 -97 -25 -134 -57 -22 -19 -40 -30 -40 -25 0 13 67 99 82 105 7 2 10 7 7
11 -4 4 -32 1 -62 -7 -65 -17 -67 -7 -7 37 22 16 38 31 36 33 -7 7 -115 -38
-150 -62 -20 -13 -36 -21 -36 -17 0 14 48 73 87 110 l38 35 -35 -7 c-54 -11
-136 -55 -175 -94 -38 -39 -43 -37 -19 9 23 46 80 104 135 140 27 17 48 33 46
35 -2 2 -25 0 -50 -5 -117 -21 -262 -155 -339 -311 -25 -52 -51 -113 -57 -135
-16 -58 -13 -160 4 -203 16 -38 87 -117 139 -155 31 -22 29 -14 -10 38 -35 48
-54 103 -53 159 l0 51 18 -55 c21 -66 55 -133 89 -178 26 -35 27 -33 -13 -102
-8 -14 -15 -49 -15 -78 0 -56 -20 -105 -73 -180 -43 -59 -133 -126 -177 -129
-52 -5 -83 -4 -89 3 -3 3 4 33 16 67 20 56 21 59 4 37 -58 -76 -77 -93 -98
-81 -22 11 -39 42 -22 38 12 -2 73 102 65 110 -3 3 -20 -16 -38 -42 -28 -40
-36 -46 -58 -40 -14 3 -37 6 -51 5 -23 0 -28 6 -37 40 -5 23 -6 40 -1 40 5 0
9 -12 9 -26 0 -14 4 -24 9 -22 15 5 81 97 81 112 0 8 8 24 18 36 l18 23 47
-21 c39 -17 48 -18 58 -6 15 18 2 34 -57 71 -47 30 -58 49 -21 37 34 -10 140
-64 159 -81 22 -20 35 -10 49 37 15 48 33 51 48 8 11 -30 12 -31 31 -13 26 23
25 28 -7 47 -39 23 -141 116 -153 139 -18 32 7 22 55 -22 50 -46 58 -41 20 11
-14 19 -34 59 -45 89 -41 112 -51 129 -71 124 -30 -8 -23 20 11 45 35 27 40
27 40 5 0 -25 66 -214 77 -222 5 -3 19 -20 31 -38 21 -30 105 -93 125 -93 5 0
-25 36 -67 81 -81 86 -106 139 -106 224 0 164 234 540 371 594 35 14 80 13
109 -3z m1390 -40 c0 -2 -7 -23 -16 -47 -8 -24 -20 -73 -25 -109 -12 -83 -36
-131 -102 -202 l-52 -58 -65 9 c-37 5 -95 23 -135 42 l-70 33 75 7 c116 11
217 39 206 58 -3 5 -27 11 -53 15 -55 7 -161 54 -183 81 -14 17 -13 18 5 11
82 -31 244 -33 300 -3 27 14 26 14 -48 19 -73 5 -127 25 -127 48 0 6 12 10 28
10 15 0 45 3 67 7 31 5 35 8 20 13 -19 7 -18 8 5 18 65 27 170 57 170 48z
m-3085 -113 c-12 -71 -71 -178 -112 -205 -35 -24 -143 -48 -143 -32 0 4 18 26
40 50 22 24 52 70 66 101 15 32 28 52 31 46 6 -16 -24 -108 -46 -143 l-15 -25
24 20 c52 44 82 83 115 153 20 39 38 72 41 72 4 0 3 -17 -1 -37z m510 -24 c23
-25 26 -30 10 -25 -11 5 -32 12 -46 18 -19 7 -26 16 -25 33 1 28 17 22 61 -26z
m-1742 2 c47 -16 106 -40 130 -54 43 -26 74 -54 66 -62 -2 -2 -40 1 -84 6 -44
6 -104 9 -133 6 -35 -2 -51 0 -49 7 5 15 123 19 176 6 110 -28 22 24 -110 64
-47 14 -94 33 -105 41 -19 14 -19 14 2 15 11 0 60 -13 107 -29z m2577 15 c0
-3 -25 -23 -56 -45 -129 -92 -302 -120 -424 -68 -34 14 -32 15 69 16 151 1
265 26 367 79 44 24 44 24 44 18z m1148 -72 c-7 -15 -23 -34 -35 -42 -20 -13
-19 -8 10 41 31 53 51 54 25 1z m-2120 -33 c4 -24 -15 -54 -29 -45 -11 6 -12
58 -2 68 12 12 28 0 31 -23z m72 -21 c0 -5 -7 -7 -15 -4 -8 4 -12 10 -9 15 6
11 24 2 24 -11z m-1350 -5 c7 -8 24 -15 38 -15 30 0 108 -74 117 -113 5 -19
-1 -42 -19 -79 -14 -28 -26 -60 -26 -69 0 -10 -3 -25 -6 -34 -6 -13 -9 -14
-16 -3 -5 8 -6 -1 -2 -23 4 -29 0 -45 -20 -78 -14 -22 -26 -55 -26 -73 0 -18
-9 -64 -20 -103 -11 -38 -27 -97 -35 -130 -9 -33 -20 -76 -25 -95 -17 -62 -12
-98 20 -142 17 -22 30 -45 30 -50 0 -18 -49 -6 -94 23 -59 39 -73 64 -52 88 9
10 16 23 16 29 0 7 7 12 15 12 27 0 16 18 -27 42 -65 36 -61 48 16 48 80 0 84
10 24 70 -24 24 -35 40 -25 36 9 -3 25 -9 35 -12 39 -15 -14 25 -73 54 -96 48
-231 66 -313 43 -37 -11 -43 2 -9 21 15 8 72 13 177 13 154 0 155 0 223 -32
78 -37 88 -26 31 37 -53 59 -125 83 -249 84 -93 1 -105 -1 -163 -30 -60 -29
-62 -30 -62 -10 0 12 7 39 14 62 8 22 18 69 22 105 9 86 14 91 72 73 153 -48
412 -89 412 -65 0 3 -11 21 -25 41 -23 33 -24 40 -14 70 13 36 15 33 -57 84
-46 33 -10 29 43 -4 36 -23 60 -31 84 -28 52 5 49 31 -10 90 -47 47 -64 78
-42 78 5 0 14 -7 21 -15z m260 -44 c0 -44 -4 -52 -31 -71 -16 -12 -32 -20 -35
-18 -8 8 8 118 17 118 5 0 9 -6 10 -12 0 -7 4 -3 9 10 16 38 30 25 30 -27z
m100 -6 c0 -24 -7 -39 -22 -49 -32 -22 -41 -20 -24 7 8 12 17 37 21 55 8 40
25 32 25 -13z m1151 10 c30 -16 31 -35 3 -35 -8 0 -32 11 -52 25 l-37 25 28 0
c15 0 41 -7 58 -15z m-1878 -39 c7 -17 -2 -56 -16 -73 -13 -17 -44 -16 -54 1
-4 8 -24 16 -43 18 -24 2 -36 9 -38 21 -3 14 4 17 35 17 21 1 49 7 63 15 32
18 47 19 53 1z m165 -56 c-3 -28 -8 -53 -12 -57 -13 -13 -17 6 -10 56 9 67 28
68 22 1z m1557 -22 c61 -21 130 -51 154 -65 43 -25 43 -26 38 -69 -8 -72 -116
-284 -144 -284 -31 0 -187 56 -268 97 -49 25 -91 46 -93 48 -2 1 4 33 13 70
16 71 75 207 102 237 21 23 52 18 198 -34z m1657 0 c-43 -63 -80 -140 -123
-257 -49 -130 -52 -194 -13 -240 l26 -31 -30 0 c-69 0 -72 62 -12 247 47 146
88 234 131 286 42 51 56 47 21 -5z m-1265 -4 c8 -22 -11 -37 -36 -29 -31 10
-28 45 4 45 14 0 28 -7 32 -16z m-1047 -17 c0 -1 9 -49 20 -107 11 -58 20
-123 20 -145 l-1 -40 -39 75 c-21 41 -39 71 -40 66 0 -5 7 -50 16 -100 12 -70
13 -98 4 -121 l-11 -29 -17 25 c-9 14 -34 46 -54 71 -35 41 -38 50 -38 104 1
58 20 170 34 192 6 10 106 18 106 9z m1192 -9 c-9 -9 -15 -9 -24 0 -9 9 -7 12
12 12 19 0 21 -3 12 -12z m1728 -31 c8 0 48 3 89 7 l74 8 -30 -53 c-16 -30
-46 -81 -66 -114 -20 -33 -46 -77 -59 -99 -40 -67 -134 -155 -199 -186 -96
-45 -179 -55 -349 -41 -79 7 -147 14 -151 17 -4 2 -17 29 -28 60 -22 59 -27
119 -11 129 6 4 10 -7 10 -26 0 -43 35 -113 63 -127 21 -10 127 -25 127 -18 0
2 -9 25 -21 51 -27 60 -18 68 17 15 30 -45 69 -70 109 -70 30 0 31 9 5 52 -30
50 -24 55 16 15 42 -41 90 -55 125 -36 15 7 19 14 11 17 -23 7 -12 24 12 18
46 -11 35 10 -22 45 -65 39 -112 77 -112 89 0 5 21 -4 48 -20 62 -38 133 -57
168 -45 35 13 41 31 12 39 -13 3 -34 15 -48 26 l-25 20 31 -11 c18 -5 54 -9
80 -7 l49 3 -63 23 c-34 13 -75 35 -90 48 -21 20 -23 24 -7 19 11 -4 47 -12
80 -17 51 -9 66 -8 100 7 l40 17 -50 18 c-59 20 -131 56 -139 69 -3 5 11 3 32
-4 56 -20 132 -29 132 -17 0 6 -22 27 -50 47 -27 20 -50 39 -50 42 0 3 28 2
63 -3 34 -4 69 -7 77 -7z m-2664 -83 c18 -14 18 -14 -6 -3 -31 14 -36 19 -24
19 6 0 19 -7 30 -16z m862 -49 c111 -41 162 -65 162 -75 0 -9 -21 -49 -47 -90
-25 -41 -63 -112 -83 -158 -20 -45 -39 -84 -42 -87 -3 -3 -27 2 -54 11 -27 9
-68 23 -92 30 l-43 13 -19 -45 c-11 -25 -20 -58 -20 -74 l0 -28 -57 24 c-32
13 -68 24 -80 24 -12 0 -68 22 -125 49 -121 58 -254 102 -319 106 -55 3 -103
31 -94 54 31 84 62 151 69 151 5 0 34 -14 64 -32 31 -17 97 -50 148 -72 51
-23 108 -55 127 -72 18 -18 44 -35 56 -39 12 -3 19 -11 16 -16 -11 -17 4 -9
29 16 15 15 37 25 53 25 20 0 24 3 16 11 -9 9 6 46 58 148 99 195 98 193 107
189 4 -2 80 -30 170 -63z m-955 -7 c-3 -35 -1 -93 4 -130 9 -62 3 -103 -10
-81 -13 21 -19 201 -7 237 6 20 13 36 15 36 1 0 1 -28 -2 -62z m1528 -123 c29
-58 38 -37 15 32 -21 62 -20 64 12 16 48 -71 104 -144 109 -140 2 2 -1 16 -7
31 -25 67 -6 73 37 12 18 -25 41 -49 52 -55 18 -10 19 -9 10 21 -12 44 -12
155 1 163 6 4 10 -11 10 -38 0 -24 7 -67 16 -96 14 -47 19 -54 60 -72 25 -10
47 -19 48 -19 2 0 1 26 -1 58 -1 31 0 50 3 42 19 -53 45 -142 42 -145 -12 -12
-297 62 -384 100 -39 17 -63 78 -69 175 l-4 65 13 -51 c7 -28 24 -73 37 -99z
m-2293 -6 c-3 -8 -7 -3 -11 10 -4 17 -3 21 5 13 5 -5 8 -16 6 -23z m502 -31
c11 -18 20 -44 20 -57 0 -36 -32 -131 -42 -125 -5 3 -6 40 -2 81 5 54 4 74 -4
69 -6 -3 -14 -28 -17 -54 -10 -74 -14 -81 -32 -57 -29 40 3 175 42 175 9 0 24
-15 35 -32z m-1079 -193 l-9 -40 -1 42 c-1 23 2 50 6 60 7 17 8 17 11 -2 1
-11 -1 -38 -7 -60z m1249 61 c0 -2 -7 -20 -15 -39 -8 -20 -15 -53 -15 -73 0
-39 -23 -44 -28 -5 -5 32 27 121 44 121 8 0 14 -2 14 -4z m60 -32 c0 -9 -9
-29 -21 -46 -12 -16 -18 -32 -15 -36 4 -3 11 0 15 7 12 19 84 -6 173 -60 78
-47 89 -59 56 -59 -13 0 -50 21 -82 45 -33 25 -63 45 -67 45 -3 0 -9 -9 -12
-21 -4 -16 -9 -18 -24 -11 -10 6 -31 15 -46 21 -39 15 -44 38 -17 88 23 44 40
55 40 27z m-795 -83 c-6 -68 -4 -85 14 -126 39 -89 20 -111 -44 -50 -35 32
-37 37 -31 78 4 24 16 68 27 98 11 30 22 60 24 67 12 34 16 4 10 -67z m512
-63 c1 -50 -2 -86 -7 -79 -6 10 -15 8 -39 -10 -17 -12 -31 -26 -31 -30 0 -3
12 -32 26 -63 14 -32 23 -60 20 -63 -3 -3 -26 13 -52 36 -25 24 -48 40 -51 37
-3 -3 2 -40 12 -81 10 -42 15 -78 13 -81 -3 -2 -25 17 -48 42 l-44 47 -28 -33
c-34 -41 -61 -120 -54 -157 14 -78 16 -103 8 -103 -5 0 -15 11 -22 25 -16 30
-30 23 -30 -15 0 -28 -15 -50 -22 -30 -1 5 -25 -34 -53 -88 -27 -53 -53 -98
-57 -100 -5 -2 -8 -21 -8 -43 0 -40 -15 -53 -23 -21 -3 9 -5 0 -6 -20 -1 -45
-10 -70 -22 -62 -16 9 -10 63 12 115 12 27 25 49 29 49 4 0 10 37 13 83 8 113
35 185 121 316 54 83 92 128 145 173 58 49 78 74 101 125 34 75 67 123 83 123
8 0 13 -29 14 -92z m1161 27 c1 -1 -14 -19 -33 -39 -30 -32 -35 -34 -35 -17 0
11 5 32 12 46 9 19 16 24 32 19 12 -4 22 -7 24 -9z m-114 -201 c21 -20 21 -41
1 -24 -8 7 -22 10 -30 6 -15 -5 -21 14 -8 27 10 11 20 8 37 -9z m-74 -22 c0
-4 -4 -12 -9 -17 -5 -6 -11 -19 -14 -30 -3 -14 -5 -10 -6 11 0 17 2 34 6 37 9
10 23 9 23 -1z m60 -27 c34 -18 37 -27 14 -49 -19 -20 -24 -20 -52 0 -25 17
-28 34 -10 52 15 15 13 15 48 -3z m177 -21 c7 -18 -6 -45 -24 -51 -9 -3 -43
48 -43 64 0 1 14 3 30 3 19 0 33 -6 37 -16z m165 -30 c3 -3 -5 -24 -18 -47
-13 -23 -24 -51 -24 -61 0 -15 -3 -17 -11 -9 -17 17 9 123 31 123 9 0 19 -3
22 -6z m137 -5 c24 -9 31 -17 31 -37 0 -57 -64 -121 -105 -106 -12 5 -10 12
11 36 27 33 29 71 3 76 -17 3 -36 -32 -41 -78 -2 -19 -10 -26 -30 -28 -30 -4
-38 12 -13 25 8 5 21 32 27 61 7 30 19 53 28 56 29 7 57 6 89 -5z m-309 -49
c0 -5 -4 -10 -10 -10 -5 0 -10 5 -10 10 0 6 5 10 10 10 6 0 10 -4 10 -10z
m-455 -91 c11 -17 -30 -2 -91 32 -86 49 -84 64 3 21 45 -23 85 -47 88 -53z
m-477 -52 c59 -51 131 -112 160 -135 117 -92 248 -145 308 -125 38 13 37 35
-1 47 -157 47 -238 95 -342 205 -78 81 -98 116 -35 59 109 -98 306 -202 422
-222 19 -3 67 -12 105 -20 68 -13 69 -14 25 -16 l-45 -1 63 -18 c34 -10 72
-27 83 -37 28 -25 150 -27 174 -3 15 14 10 17 -57 29 -61 10 -78 18 -104 45
-40 42 -74 60 -170 85 -93 24 -251 100 -284 135 -13 14 -21 25 -18 25 3 0 64
-25 134 -55 71 -31 154 -62 185 -70 32 -9 86 -29 121 -45 35 -17 71 -30 80
-30 24 0 32 -18 11 -23 -10 -3 1 -5 25 -6 48 -1 82 13 82 33 0 16 -42 36 -75
36 -13 0 -27 5 -31 11 -4 7 10 9 49 4 36 -5 57 -3 61 4 5 7 -5 11 -28 11 -38
0 -56 14 -30 24 9 3 33 6 54 6 20 0 57 7 80 15 40 14 100 20 100 10 0 -2 -8
-20 -17 -39 -14 -30 -14 -42 -5 -74 19 -62 16 -75 -45 -192 -49 -95 -55 -114
-45 -130 7 -11 12 -30 12 -42 0 -36 -148 -339 -191 -390 -21 -26 -39 -52 -39
-58 0 -18 -74 -111 -136 -172 -99 -96 -219 -138 -322 -114 -47 11 -47 11 -12
13 59 4 171 26 176 34 2 4 -31 19 -73 33 -124 42 -122 46 22 46 72 0 137 4
145 10 18 11 7 16 -68 25 -51 6 -148 38 -165 54 -5 5 45 6 111 3 69 -3 126 -1
137 5 13 8 3 11 -43 16 -63 7 -186 47 -165 54 7 3 44 0 82 -6 82 -13 178 -14
185 -3 3 5 -35 18 -85 29 -49 12 -113 33 -142 47 l-52 26 60 -5 c247 -22 382
-13 205 13 -138 20 -286 101 -456 249 -51 45 -75 60 -80 51 -5 -7 -9 -42 -10
-78 -2 -35 -8 -66 -13 -68 -15 -5 -13 61 4 131 14 62 25 81 32 59 39 -107 373
-276 575 -290 98 -6 107 13 11 23 -38 3 -86 11 -108 16 -80 20 -306 147 -344
193 -16 19 -13 19 64 1 33 -8 73 -15 88 -15 17 0 36 -10 50 -25 22 -26 147
-75 189 -75 13 0 38 9 57 21 30 18 40 19 77 10 52 -13 94 -14 94 -2 0 10 -49
21 -96 21 -39 0 -38 -2 -20 47 8 21 16 54 19 74 3 19 17 53 32 74 14 22 25 48
23 59 -6 44 -172 126 -257 129 l-45 2 -21 -68 c-11 -38 -24 -68 -29 -67 -4 1
-13 -6 -20 -16 -12 -15 -23 -12 -132 45 -65 33 -134 65 -152 71 l-34 9 17 -25
17 -26 -48 4 -48 3 -41 -73 c-146 -264 -403 -464 -542 -422 -26 8 -25 8 13 9
45 1 105 38 84 51 -6 4 7 10 30 14 55 9 113 33 106 45 -3 5 -20 12 -38 15 -40
7 -98 41 -98 57 0 6 7 8 16 5 26 -10 155 -28 161 -23 2 3 -22 13 -53 22 -32 9
-77 27 -99 38 l-40 22 145 5 c140 5 158 9 95 24 -29 7 -114 65 -115 78 0 10
49 17 134 17 43 0 81 2 83 5 2 2 -26 20 -64 40 -77 40 -137 87 -154 118 l-11
21 33 -21 c89 -55 270 -105 269 -74 0 4 -31 23 -68 44 -76 41 -176 118 -193
150 -12 22 -2 20 31 -7 27 -21 204 -111 256 -130 50 -17 89 -15 82 5 -2 5 -41
40 -87 77 -46 37 -100 88 -120 112 -39 49 -35 48 54 -15 78 -54 150 -90 200
-98 l40 -6 -45 37 c-107 90 -266 253 -245 253 3 0 54 -42 113 -93z m775 -244
c-7 -2 -19 -2 -25 0 -7 3 -2 5 12 5 14 0 19 -2 13 -5z m-543 -178 c53 -19 56
-19 39 1 -11 14 -6 13 26 -3 22 -12 66 -29 98 -39 48 -15 57 -21 57 -41 0 -13
-6 -26 -14 -29 -14 -5 -260 96 -280 116 -15 15 24 13 74 -5z"/>
<path d="M6193 7319 c-4 -12 -17 -22 -35 -26 -37 -7 -22 -26 18 -21 24 3 29 8
30 36 2 36 -5 42 -13 11z"/>
<path d="M6206 6477 c-19 -45 -46 -126 -46 -141 0 -26 21 17 45 92 29 91 30
115 1 49z"/>
<path d="M7553 7801 c-43 -31 -89 -111 -99 -172 -23 -141 140 -272 277 -224
52 19 74 37 111 94 65 103 10 238 -124 307 -65 33 -115 31 -165 -5z m130 -127
c72 -37 82 -65 47 -134 -19 -38 -34 -49 -42 -32 -1 4 -29 20 -60 36 -69 34
-74 57 -27 111 36 40 39 41 82 19z"/>
<path d="M4568 7595 c-52 -36 -135 -159 -167 -250 -9 -25 -1 -19 51 35 84 89
188 222 182 232 -9 14 -28 9 -66 -17z"/>
<path d="M2998 5693 c18 -2 45 -2 60 0 15 2 0 4 -33 4 -33 0 -45 -2 -27 -4z"/>
<path d="M4930 4936 c0 -10 9 -16 21 -16 24 0 21 23 -4 28 -10 2 -17 -3 -17
-12z"/>
<path d="M5096 4931 c-4 -5 -2 -12 3 -15 5 -4 12 -2 15 3 4 5 2 12 -3 15 -5 4
-12 2 -15 -3z"/>
<path d="M5213 4654 c-24 -20 -43 -84 -25 -84 15 0 54 67 50 86 -3 15 -5 14
-25 -2z"/>
<path d="M4958 4543 c6 -2 18 -2 25 0 6 3 1 5 -13 5 -14 0 -19 -2 -12 -5z"/>
<path d="M3636 5722 c-4 -6 -11 -47 -16 -91 -5 -43 -16 -96 -25 -118 -39 -91
-60 -316 -34 -365 28 -54 58 -41 121 55 60 93 68 115 68 192 0 37 13 117 31
190 17 70 29 128 27 130 -2 3 -40 7 -85 11 -54 4 -82 3 -87 -4z"/>
<path d="M6308 5153 c17 -2 47 -2 65 0 17 2 3 4 -33 4 -36 0 -50 -2 -32 -4z"/>
<path d="M6463 5143 c15 -2 37 -2 50 0 12 2 0 4 -28 4 -27 0 -38 -2 -22 -4z"/>
<path d="M3521 5064 c0 -11 3 -14 6 -6 3 7 2 16 -1 19 -3 4 -6 -2 -5 -13z"/>
<path d="M6478 4983 c7 -3 16 -2 19 1 4 3 -2 6 -13 5 -11 0 -14 -3 -6 -6z"/>
<path d="M6351 4928 c0 -9 -4 -25 -7 -35 -5 -17 -5 -17 6 0 6 10 9 25 7 35 -4
15 -5 15 -6 0z"/>
<path d="M6316 4795 c4 -8 8 -15 10 -15 2 0 4 7 4 15 0 8 -4 15 -10 15 -5 0
-7 -7 -4 -15z"/>
<path d="M6019 4693 c-13 -16 -12 -17 4 -4 16 13 21 21 13 21 -2 0 -10 -8 -17
-17z"/>
<path d="M5957 4654 c3 -9 9 -11 12 -6 3 5 13 12 21 15 9 3 4 6 -12 6 -21 1
-26 -3 -21 -15z"/>
<path d="M6085 4550 c-3 -5 -1 -10 4 -10 6 0 11 5 11 10 0 6 -2 10 -4 10 -3 0
-8 -4 -11 -10z"/>
<path d="M6228 4553 c6 -2 18 -2 25 0 6 3 1 5 -13 5 -14 0 -19 -2 -12 -5z"/>
<path d="M2572 3918 c8 -13 21 -33 29 -45 8 -13 17 -23 22 -23 4 0 -6 20 -23
45 -31 45 -55 65 -28 23z"/>
<path d="M7771 3765 c-45 -63 -105 -140 -133 -170 -28 -31 -48 -59 -44 -62 7
-7 66 56 66 70 0 5 5 5 12 1 6 -4 8 -3 4 4 -3 6 2 19 12 29 21 21 176 243 169
243 -3 0 -42 -52 -86 -115z"/>
<path d="M2636 3828 c4 -7 25 -36 46 -64 21 -28 38 -55 38 -61 0 -5 7 -10 15
-10 18 0 14 7 -48 85 -47 58 -68 79 -51 50z"/>
<path d="M7720 3560 c0 -5 12 -10 26 -10 14 0 23 4 19 10 -3 6 -15 10 -26 10
-10 0 -19 -4 -19 -10z"/>
<path d="M1756 1760 c-3 -17 -24 -61 -46 -99 -22 -37 -40 -70 -40 -74 0 -4 43
-7 95 -7 52 0 95 4 95 9 0 4 -18 47 -40 94 -22 47 -40 90 -40 96 0 24 -18 9
-24 -19z"/>
<path d="M6247 1693 c-26 -54 -47 -104 -47 -110 0 -15 24 -16 131 -7 l74 6
-50 104 c-27 56 -52 103 -55 103 -3 1 -27 -43 -53 -96z"/>
<path d="M3520 1795 l0 -115 78 0 c105 0 148 14 172 53 26 42 26 97 0 130 -27
34 -76 47 -172 47 l-78 0 0 -115z"/>
<path d="M4295 1886 c-86 -39 -138 -117 -139 -206 0 -101 66 -186 169 -215 84
-25 159 -1 235 75 110 110 59 301 -95 353 -66 23 -111 21 -170 -7z"/>
</g>
</svg>
